<svg xmlns="http://www.w3.org/2000/svg" viewBox="0 0 100 100"><rect width="100" height="100" rx="18" fill="#0a1017"/><g fill="#dda765"><circle cx="14.9" cy="38.3" r="2.0"/><circle cx="14.9" cy="44.2" r="2.0"/><circle cx="14.9" cy="50.0" r="2.0"/><circle cx="20.8" cy="26.6" r="2.0"/><circle cx="20.8" cy="32.5" r="2.0"/><circle cx="20.8" cy="38.3" r="2.0"/><circle cx="20.8" cy="44.2" r="2.0"/><circle cx="20.8" cy="50.0" r="2.0"/><circle cx="20.8" cy="55.8" r="2.0"/><circle cx="26.6" cy="20.8" r="2.0"/><circle cx="26.6" cy="26.6" r="2.0"/><circle cx="26.6" cy="32.5" r="2.0"/><circle cx="26.6" cy="38.3" r="2.0"/><circle cx="26.6" cy="44.2" r="2.0"/><circle cx="26.6" cy="50.0" r="2.0"/><circle cx="26.6" cy="55.8" r="2.0"/><circle cx="26.6" cy="61.7" r="2.0"/><circle cx="32.5" cy="20.8" r="2.0"/><circle cx="32.5" cy="26.6" r="2.0"/><circle cx="32.5" cy="32.5" r="2.0"/><circle cx="32.5" cy="38.3" r="2.0"/><circle cx="32.5" cy="44.2" r="2.0"/><circle cx="32.5" cy="55.8" r="2.0"/><circle cx="32.5" cy="61.7" r="2.0"/><circle cx="32.5" cy="67.5" r="2.0"/><circle cx="38.3" cy="14.9" r="2.0"/><circle cx="38.3" cy="20.8" r="2.0"/><circle cx="38.3" cy="26.6" r="2.0"/><circle cx="38.3" cy="32.5" r="2.0"/><circle cx="38.3" cy="38.3" r="2.0"/><circle cx="38.3" cy="44.2" r="2.0"/><circle cx="38.3" cy="61.7" r="2.0"/><circle cx="38.3" cy="67.5" r="2.0"/><circle cx="38.3" cy="73.4" r="2.0"/><circle cx="38.3" cy="79.2" r="2.0"/><circle cx="38.3" cy="85.1" r="2.0"/><circle cx="44.2" cy="14.9" r="2.0"/><circle cx="44.2" cy="20.8" r="2.0"/><circle cx="44.2" cy="26.6" r="2.0"/><circle cx="44.2" cy="32.5" r="2.0"/><circle cx="44.2" cy="61.7" r="2.0"/><circle cx="44.2" cy="67.5" r="2.0"/><circle cx="44.2" cy="73.4" r="2.0"/><circle cx="50.0" cy="14.9" r="2.0"/><circle cx="50.0" cy="20.8" r="2.0"/><circle cx="50.0" cy="26.6" r="2.0"/><circle cx="50.0" cy="32.5" r="2.0"/><circle cx="50.0" cy="50.0" r="2.0"/><circle cx="50.0" cy="55.8" r="2.0"/><circle cx="55.8" cy="14.9" r="2.0"/><circle cx="55.8" cy="20.8" r="2.0"/><circle cx="55.8" cy="26.6" r="2.0"/><circle cx="55.8" cy="38.3" r="2.0"/><circle cx="55.8" cy="44.2" r="2.0"/><circle cx="55.8" cy="50.0" r="2.0"/><circle cx="55.8" cy="55.8" r="2.0"/><circle cx="61.7" cy="26.6" r="2.0"/><circle cx="61.7" cy="32.5" r="2.0"/><circle cx="61.7" cy="38.3" r="2.0"/><circle cx="61.7" cy="44.2" r="2.0"/><circle cx="61.7" cy="50.0" r="2.0"/><circle cx="61.7" cy="55.8" r="2.0"/><circle cx="61.7" cy="61.7" r="2.0"/><circle cx="61.7" cy="67.5" r="2.0"/><circle cx="61.7" cy="73.4" r="2.0"/><circle cx="67.5" cy="26.6" r="2.0"/><circle cx="67.5" cy="32.5" r="2.0"/><circle cx="67.5" cy="38.3" r="2.0"/><circle cx="67.5" cy="44.2" r="2.0"/><circle cx="67.5" cy="50.0" r="2.0"/><circle cx="67.5" cy="55.8" r="2.0"/><circle cx="67.5" cy="61.7" r="2.0"/><circle cx="67.5" cy="67.5" r="2.0"/><circle cx="67.5" cy="73.4" r="2.0"/><circle cx="73.4" cy="20.8" r="2.0"/><circle cx="73.4" cy="26.6" r="2.0"/><circle cx="73.4" cy="32.5" r="2.0"/><circle cx="73.4" cy="38.3" r="2.0"/><circle cx="73.4" cy="44.2" r="2.0"/><circle cx="73.4" cy="50.0" r="2.0"/><circle cx="73.4" cy="55.8" r="2.0"/><circle cx="73.4" cy="61.7" r="2.0"/><circle cx="73.4" cy="67.5" r="2.0"/><circle cx="79.2" cy="26.6" r="2.0"/><circle cx="79.2" cy="32.5" r="2.0"/><circle cx="79.2" cy="38.3" r="2.0"/><circle cx="79.2" cy="44.2" r="2.0"/><circle cx="79.2" cy="50.0" r="2.0"/><circle cx="85.1" cy="38.3" r="2.0"/><circle cx="85.1" cy="44.2" r="2.0"/><circle cx="85.1" cy="50.0" r="2.0"/><circle cx="85.1" cy="55.8" r="2.0"/></g></svg>